# xmcd CD database file
#
# Track frame offsets:
#	150
#	13588
#	28839
#	44005
#	57651
#	71483
#	86497
#	99908
#	115043
#	128452
#	142245
#	155368
#
# Disc length: 2260 seconds
#
# Revision: 0
# Processed by: cddbd v1.5.2PL0 Copyright (c) Steve Scherf et al.
# Submitted via: CDex 1.60beta1-cs1
#
DISCID=a008d20c
DTITLE=Billie Holiday  [1915-1959] - 'A Imortal Billie Holiday'  (LP-CBS 137806) [1973]
DYEAR=1973
DGENRE=Jazz
TTITLE0='God Bless the child'  (B. Holiday - A. Herzog) - NYC, 09.05.1941
TTITLE1='Georgia on my mind'  (S. Gorrell - H. Carmichael) - NYC, 21.03.1941
TTITLE2='You've changed'  (Carey - C. Fisher) - NYC, 20.02.1958
TTITLE3='All of me'  (S. Simons - G. Marks) - NYC, 05.07.1939
TTITLE4='My Man'  (C. Pollak - M. Yvain) - NYC, 01.11.1937
TTITLE5='I cried for you'  (A. Freed - G. Arnheim - A. Lyman) - NYC, 30.06.1936
TTITLE6='Summertime'  (D. Heyward - G. Gershwin) - NYC, 10.07.1936
TTITLE7='Love me or leave me'  (G. Kahn - W. Donaldson) - NYC, 07.08.1941
TTITLE8='Body and Soul'  (J. Green - E. Heyman - R. Sour - R. Eyton) - NYC, 29.02.1940
TTITLE9='I'll never be the same'  (M. Malneck - F. Signorelli - G. Kahn) - NYC, 01.06.1937
TTITLE10='When you're smiling'  (M. Fisher - J. Goodwin - L. Shay) - NYC, 05.01.1938
TTITLE11='The Man I love'  (Ira and G. Gershwin) - NYC, 15.12.1939
EXTD=YEAR: 1973
EXTT0=
EXTT1=
EXTT2=
EXTT3=
EXTT4=
EXTT5=
EXTT6=
EXTT7=
EXTT8=
EXTT9=
EXTT10=
EXTT11=
PLAYORDER=
